<svg xmlns="http://www.w3.org/2000/svg" fill="none" viewBox="0 0 24 24">
  <g clip-path="url(#a)">
    <path fill="#f0f0f0" d="M12 24c6.627 0 12-5.373 12-12S18.627 0 12 0 0 5.373 0 12s5.373 12 12 12"/>
    <path fill="#0052b4" d="M2.48 4.694A12 12 0 0 0 .414 8.87h6.243zM23.587 8.87a12 12 0 0 0-2.068-4.176L17.344 8.87zM.413 15.13a12 12 0 0 0 2.068 4.176l4.175-4.175zM19.306 2.48A12 12 0 0 0 15.13.415v6.242zM4.694 21.52a12 12 0 0 0 4.176 2.067v-6.243zM8.87.414A12 12 0 0 0 4.693 2.48L8.87 6.656zM15.13 23.587a12 12 0 0 0 4.176-2.067l-4.176-4.176zM17.344 15.13l4.175 4.176a12 12 0 0 0 2.068-4.175z"/>
    <path fill="#d80027" d="M23.898 10.435H13.565V.102a12.1 12.1 0 0 0-3.13 0v10.333H.102a12.1 12.1 0 0 0 0 3.13h10.333v10.333a12.1 12.1 0 0 0 3.13 0V13.565h10.333a12.1 12.1 0 0 0 0-3.13"/>
    <path fill="#d80027" d="m15.13 15.13 5.355 5.355q.37-.37.706-.77l-4.585-4.585zM8.87 15.13l-5.355 5.355q.37.369.77.706l4.585-4.585zM8.87 8.87 3.515 3.515a12 12 0 0 0-.706.77L7.394 8.87zM15.13 8.87l5.355-5.355a12 12 0 0 0-.77-.705L15.13 7.394z"/>
  </g>
  <defs>
    <clipPath id="a">
      <path fill="#fff" d="M0 0h24v24H0z"/>
    </clipPath>
  </defs>
</svg>
