<svg xmlns="http://www.w3.org/2000/svg" fill="none" viewBox="0 0 84 25">
  <path fill="#101010" d="M13.26 25q-4.01 0-7.024-1.506-2.982-1.505-4.626-4.306Q0 16.386 0 12.675 0 8.93 1.645 6.057 3.324 3.151 6.2 1.576 9.114 0 12.711 0q3.564 0 6.441 1.576 2.912 1.575 4.557 4.481 1.68 2.872 1.68 6.618 0 2.52-1.097 4.832-1.097 2.276-2.844 3.606h4.386V25zm-.549-4.027q3.803 0 6.03-2.17 2.262-2.172 2.262-6.128 0-2.591-1.097-4.552-1.095-1.96-2.98-3.01-1.886-1.051-4.215-1.051-2.33 0-4.248 1.05-1.885 1.05-2.981 3.011t-1.096 4.552q0 3.991 2.227 6.162 2.26 2.136 6.098 2.136M33.946 4.202h-7.23V.525h18.81v3.677h-7.23V25h-4.35zM49.633.525h4.351V25h-4.351zM59.469.525h4.248l8.017 17.927L79.751.525H84V25h-4.111V9.104L72.762 25h-2.056L63.58 9.104V25h-4.111z"/>
</svg>
